<svg width="46" height="21" viewBox="0 0 46 21" fill="none" xmlns="http://www.w3.org/2000/svg">
<path d="M9.86215 14.1845C9.47471 14.9213 9.22815 15.5108 8.87593 16.0266C8.69982 16.3213 8.3476 16.6529 8.06583 16.6529C7.81927 16.6897 7.46705 16.3213 7.32616 16.0266C6.09339 13.6318 4.86062 11.2371 3.66307 8.80551C3.24041 7.95815 3.5574 7.44236 4.47318 7.44236C5.07195 7.44236 5.70595 7.44236 6.48083 7.44236C6.05817 6.59499 5.70595 5.89499 5.38895 5.15815C4.8254 3.9792 5.31851 3.09499 6.62172 3.09499C8.59416 3.05815 10.5314 3.09499 12.5038 3.09499C14.3001 3.09499 16.0965 3.09499 17.8928 3.09499C19.513 3.09499 19.9709 3.86867 19.2312 5.34236C17.3292 9.06341 15.4625 12.7845 13.5252 16.4687C13.3139 16.9108 12.7856 17.316 12.3277 17.4266C11.7289 17.5739 11.3415 17.0213 11.0597 16.4687C10.7075 15.7687 10.32 15.0687 9.86215 14.1845ZM9.93259 7.29499C9.12249 7.29499 8.31238 7.25815 7.50227 7.29499C6.76261 7.33183 6.51606 7.73709 6.83305 8.40025C7.60794 9.98446 8.41805 11.5687 9.22815 13.1529C9.58037 13.816 10.0735 13.8529 10.4257 13.1897C11.271 11.6055 12.0459 10.0213 12.856 8.43709C13.2082 7.73709 12.9617 7.33183 12.1868 7.29499C11.4471 7.25815 10.6723 7.29499 9.93259 7.29499Z" fill="#F71963"/>
<path d="M36.5253 13.3738C36.9831 12.6001 37.3706 11.8264 37.8285 11.0896C38.1455 10.6107 38.1807 10.2422 37.8285 9.72645C37.3706 9.06329 36.9479 8.32645 36.5253 7.58961C38.075 6.96329 38.2864 8.43697 38.9556 9.21066C39.6952 8.58434 39.7657 6.96329 41.3155 7.58961C40.8576 8.32645 40.4701 9.06329 40.0122 9.76329C39.7305 10.2054 39.6952 10.537 40.0122 10.9422C40.5053 11.6791 40.9632 12.4896 41.4211 13.2633C39.7657 13.9633 39.66 12.2686 38.8851 11.5686C38.1807 12.3054 38.1807 14.0001 36.5253 13.3738Z" fill="#F71963"/>
<path d="M24.0566 12.0477C24.3736 10.8319 24.7259 9.65299 24.9724 8.4372C25.1485 7.62667 25.536 7.36878 26.4165 7.70036C26.17 8.54773 25.9586 9.43194 25.7121 10.3161C25.5008 11.053 25.2894 11.8267 25.0781 12.5635C24.902 13.1898 24.5145 13.4846 23.9158 13.4846C23.2818 13.4846 22.9295 13.153 22.7534 12.5267C22.2955 10.9056 21.8729 9.32141 21.415 7.70036C22.4364 7.36878 22.5773 7.44246 22.8239 8.4372C23.1409 9.65299 23.4579 10.8319 23.7749 12.0477C23.8805 12.0846 23.951 12.0846 24.0566 12.0477Z" fill="#F71963"/>
<path d="M35.539 9.98431C35.5038 10.3896 35.5038 10.6106 35.5038 10.9422C34.9755 10.9422 34.5176 10.9422 34.0245 10.9422C33.6722 10.9422 33.2848 10.9054 33.32 11.458C33.32 11.9738 33.3552 12.4527 33.9892 12.4896C34.3767 12.4896 34.7994 12.4527 35.1868 12.5264C35.3629 12.5633 35.6447 12.8212 35.6095 12.9317C35.5742 13.1527 35.3629 13.4475 35.1868 13.4843C34.5528 13.558 33.8836 13.558 33.2496 13.4843C32.6156 13.4106 32.1577 13.0054 32.1577 12.2685C32.1225 11.1264 32.1577 9.98431 32.1577 8.80537C32.1577 8.14221 32.5099 7.7001 33.0735 7.62642C33.7779 7.51589 34.5176 7.55273 35.222 7.58958C35.3629 7.58958 35.5742 7.92116 35.5742 8.10537C35.5742 8.25273 35.3277 8.51063 35.1516 8.54747C34.7994 8.62116 34.4119 8.58431 34.0245 8.58431C33.4257 8.58431 33.2496 8.91589 33.2496 9.50537C33.2496 10.1317 33.6722 10.058 34.0245 10.058C34.5528 9.98431 35.0107 9.98431 35.539 9.98431Z" fill="#F71963"/>
<path d="M29.9035 13.4475C29.4456 13.4475 29.0934 13.4475 28.6707 13.4475C28.6707 11.8264 28.6707 10.2791 28.6707 8.62116C28.1424 8.58431 27.7197 8.58431 27.2266 8.54747C27.2266 8.21589 27.2266 7.92116 27.2266 7.55273C28.5651 7.55273 29.9035 7.55273 31.2772 7.55273C31.2772 7.88431 31.2772 8.17905 31.2772 8.51063C30.8193 8.54747 30.3966 8.58431 29.8683 8.62116C29.9035 10.2422 29.9035 11.7896 29.9035 13.4475Z" fill="#F71963"/>
</svg>
