<svg width="43" height="12" viewBox="0 0 43 12" fill="none" xmlns="http://www.w3.org/2000/svg">
<g clip-path="url(#clip0)">
<path d="M35.1539 3.59668H33.3835V8.78887H35.1539V3.59668Z" fill="black"/>
<path d="M34.9911 2.62436C35.1745 2.44049 35.2771 2.19492 35.2771 1.93938C35.2771 1.68384 35.1745 1.43827 34.9911 1.25439C34.9124 1.19217 34.8296 1.13497 34.7432 1.08315L34.2475 0.774902L33.773 1.0626C33.6894 1.11519 33.609 1.17236 33.5322 1.23384C33.4079 1.31538 33.3037 1.42247 33.2272 1.54747C33.1506 1.67246 33.1035 1.81227 33.0893 1.9569C33.0751 2.10153 33.0941 2.24741 33.1449 2.38411C33.1958 2.52082 33.2772 2.64498 33.3834 2.74771C33.4896 2.85044 33.618 2.9292 33.7593 2.97838C33.9007 3.02756 34.0515 3.04593 34.201 3.03218C34.3506 3.01844 34.4951 2.97291 34.6243 2.89886C34.7536 2.82481 34.8643 2.72406 34.9486 2.60381L34.9911 2.62436Z" fill="black"/>
<path d="M6.32344 6.63803C6.32972 6.21467 6.17299 5.80419 5.88371 5.48641C5.59444 5.16863 5.1933 4.96628 4.75833 4.91872C5.12049 4.82547 5.43996 4.61767 5.66585 4.32842C5.89173 4.03918 6.01104 3.68514 6.00475 3.3227C6.00475 1.83628 4.58836 1.42529 3.41276 1.42529H0.374619V8.78888H3.41276C4.86456 8.78888 6.32344 8.24089 6.32344 6.63803ZM2.15218 2.82266H3.087C3.85893 2.82266 4.25551 3.04186 4.25551 3.5419C4.25551 4.04193 3.85893 4.34333 3.17198 4.34333H2.15218V2.82266ZM2.15218 7.35041V5.6585H3.17198C3.95807 5.6585 4.50338 5.85714 4.50338 6.45308C4.50338 7.04902 3.79519 7.32986 3.21447 7.32986L2.15218 7.35041Z" fill="black"/>
<path d="M8.81627 0.904785H7.02454V8.78211H8.81627V0.904785Z" fill="black"/>
<path d="M9.5528 7.28877C9.5528 8.50804 10.6576 8.91218 11.5074 8.91218C11.7987 8.92706 12.0894 8.87236 12.3537 8.7529C12.618 8.63344 12.8478 8.45289 13.0229 8.22719V8.78203H14.6376V6.17224C14.6376 4.28168 13.9719 3.4323 12.1731 3.4323C11.291 3.42377 10.4374 3.73399 9.77942 4.30223L10.6717 5.23381C11.0313 4.90591 11.5021 4.71597 11.9961 4.69952C12.5484 4.69952 12.9663 4.93927 12.9663 5.45301V5.5352C11.4437 5.5352 9.5528 5.7681 9.5528 7.28877ZM13.0583 6.52158V6.69968C13.0717 6.84352 13.0519 6.98843 13.0005 7.12403C12.9492 7.25963 12.8674 7.38257 12.7612 7.48403C12.6549 7.58549 12.5268 7.66298 12.3859 7.71093C12.2451 7.75888 12.095 7.77612 11.9465 7.7614C11.5924 7.7614 11.1816 7.63126 11.1816 7.23397C11.1816 6.61748 12.0527 6.54898 12.8317 6.54898L13.0583 6.52158Z" fill="black"/>
<path d="M18.3415 8.95351C19.0673 8.97055 19.7739 8.72647 20.3244 8.26853L19.3754 7.1383C19.2508 7.26287 19.1009 7.36122 18.9352 7.42723C18.7695 7.49323 18.5915 7.52546 18.4123 7.5219C18.238 7.52046 18.066 7.48449 17.9066 7.41621C17.7473 7.34792 17.6042 7.24877 17.4861 7.12488C17.3679 7.00098 17.2773 6.85498 17.2198 6.69588C17.1623 6.53678 17.1391 6.36797 17.1517 6.19987C17.1392 6.03279 17.1617 5.86499 17.2177 5.70648C17.2738 5.54798 17.3623 5.40204 17.478 5.27736C17.5937 5.15268 17.7342 5.05184 17.891 4.98084C18.0479 4.90985 18.218 4.87016 18.391 4.86415C18.5701 4.86301 18.7472 4.89983 18.9099 4.97202C19.0726 5.04421 19.217 5.15002 19.3329 5.282L20.3527 4.13807C19.8001 3.6791 19.0909 3.435 18.3627 3.45309C17.6058 3.45309 16.8799 3.74392 16.3446 4.26161C15.8094 4.77931 15.5087 5.48145 15.5087 6.21357C15.5087 6.9457 15.8094 7.64784 16.3446 8.16553C16.8799 8.68323 17.6058 8.97406 18.3627 8.97406L18.3415 8.95351Z" fill="black"/>
<path d="M22.6473 6.29561H22.6827L24.439 8.78896H26.6202L24.4673 5.93942L26.5352 3.59678H24.3965L22.6827 5.69968H22.6473V0.904785H20.8697V8.78896H22.6473V6.29561Z" fill="black"/>
<path d="M29.7009 7.50152C29.3845 7.49083 29.0741 7.41576 28.7898 7.28121C28.5054 7.14666 28.2536 6.95565 28.0508 6.72064L26.8468 7.91252C27.6105 8.61223 28.6279 8.99356 29.6796 8.97424C31.1881 8.97424 32.5974 8.21391 32.5974 6.51515C32.5974 5.04243 31.266 4.61774 30.232 4.2958C29.5238 4.0766 29.0564 3.91905 29.0564 3.43272C29.0564 2.94638 29.6442 2.69293 30.1187 2.69293C30.3784 2.69965 30.6337 2.75924 30.868 2.86783C31.1023 2.97641 31.3103 3.13155 31.4784 3.32312L32.654 2.12439C31.9597 1.54293 31.0725 1.22205 30.1541 1.22021C28.7377 1.22021 27.2009 1.9052 27.2009 3.53546C27.2009 4.90543 28.1782 5.35067 29.1485 5.65207C30.1187 5.95346 30.7348 6.13841 30.7348 6.70009C30.7348 7.26178 30.2603 7.50152 29.7009 7.50152Z" fill="black"/>
<path d="M37.838 8.21384C38.0371 8.43927 38.2865 8.61805 38.5674 8.73671C38.8484 8.85536 39.1535 8.91079 39.4598 8.89882C41.0815 8.89882 42.0163 7.58365 42.0163 6.15889C42.0464 5.81524 42.0034 5.46928 41.8901 5.1423C41.7767 4.81532 41.5954 4.51423 41.3572 4.25757C41.1191 4.00091 40.8291 3.7941 40.5052 3.64988C40.1814 3.50565 39.8304 3.42706 39.4739 3.41895C39.1471 3.42026 38.825 3.4945 38.5326 3.63587C38.2403 3.77725 37.9856 3.98196 37.7884 4.23408H37.753V3.59704H36.0675V11.2894H37.838V8.21384ZM39.0632 4.85056C39.238 4.84996 39.4111 4.88456 39.5714 4.95216C39.7317 5.01975 39.8757 5.11887 39.9943 5.24321C40.1129 5.36754 40.2034 5.51438 40.2601 5.67438C40.3168 5.83438 40.3385 6.00404 40.3238 6.17259C40.3436 6.34448 40.3259 6.5185 40.2717 6.68332C40.2175 6.84815 40.128 7.0001 40.0091 7.12931C39.8902 7.25851 39.7446 7.36208 39.5816 7.43328C39.4186 7.50447 39.242 7.5417 39.0632 7.54255C38.7149 7.51839 38.3891 7.36752 38.1512 7.12033C37.9133 6.87314 37.781 6.54797 37.781 6.21026C37.781 5.87255 37.9133 5.54738 38.1512 5.30019C38.3891 5.05299 38.7149 4.90213 39.0632 4.87796V4.85056Z" fill="black"/>
</g>
<defs>
<clipPath id="clip0">
<rect width="43" height="11.5366" fill="white"/>
</clipPath>
</defs>
</svg>
